# xmcd
#
# Track frame offsets:
#	150
#	18550
#	35839
#	55489
#	74116
#	90294
#	108962
#	129170
#	142232
#	163198
#	179568
#
# Disc length: 2559 seconds
#
# Revision: 1
# Processed by: cddbd v1.5.1PL0 Copyright (c) Steve Scherf et al.
# Submitted via: EasyCDDAExtractor 7.0.5.4
#
DISCID=a409fd0b
DTITLE=Various Artist - Sveskime linksmai
DYEAR=2004
DGENRE=
TTITLE0=Kaledu nakti tylia
TTITLE1=Kaledine daina
TTITLE2=Coming home for christmas
TTITLE3=Tai kaledos
TTITLE4=Jingle bells
TTITLE5=Baltas miestas
TTITLE6=Last christmas
TTITLE7=Man palinkek
TTITLE8=Silent night
TTITLE9=Nemiegok, kaledos jau arti
TTITLE10=Happy Christmas day
EXTD=
EXTT0=
EXTT1=
EXTT2=
EXTT3=
EXTT4=
EXTT5=
EXTT6=
EXTT7=
EXTT8=
EXTT9=
EXTT10=
PLAYORDER=
